<?xml version="1.0" encoding="utf-8" standalone="no"?>
<!DOCTYPE svg PUBLIC "-//W3C//DTD SVG 1.1//EN"
  "http://www.w3.org/Graphics/SVG/1.1/DTD/svg11.dtd">
<svg xmlns:xlink="http://www.w3.org/1999/xlink" width="720pt" height="223.2pt" viewBox="0 0 720 223.2" xmlns="http://www.w3.org/2000/svg" version="1.1">
 <metadata>
  <rdf:RDF xmlns:dc="http://purl.org/dc/elements/1.1/" xmlns:cc="http://creativecommons.org/ns#" xmlns:rdf="http://www.w3.org/1999/02/22-rdf-syntax-ns#">
   <cc:Work>
    <dc:type rdf:resource="http://purl.org/dc/dcmitype/StillImage"/>
    <dc:date>2026-10-07T11:20:35.868188</dc:date>
    <dc:format>image/svg+xml</dc:format>
    <dc:creator>
     <cc:Agent>
      <dc:title>Matplotlib v3.10.8, https://matplotlib.org/</dc:title>
     </cc:Agent>
    </dc:creator>
   </cc:Work>
  </rdf:RDF>
 </metadata>
 <defs>
  <style type="text/css">*{stroke-linejoin: round; stroke-linecap: butt}</style>
 </defs>
 <g id="figure_1">
  <g id="patch_1">
   <path d="M 0 223.2 
L 720 223.2 
L 720 0 
L 0 0 
z
" style="fill: #ffffff"/>
  </g>
  <g id="axes_1">
   <g id="patch_2">
    <path d="M 3.6 162.6384 
L 231.696 162.6384 
L 231.696 5.14848 
L 3.6 5.14848 
z
" clip-path="url(#pcd4a4f5258)" style="fill: #ffffff; stroke: #595a5b; stroke-width: 2; stroke-linejoin: miter"/>
   </g>
   <g id="patch_3">
    <path d="M 245.952 162.6384 
L 474.048 162.6384 
L 474.048 5.14848 
L 245.952 5.14848 
z
" clip-path="url(#pcd4a4f5258)" style="fill: #ffffff; stroke: #595a5b; stroke-width: 2; stroke-linejoin: miter"/>
   </g>
   <g id="patch_4">
    <path d="M 488.304 162.6384 
L 716.4 162.6384 
L 716.4 5.14848 
L 488.304 5.14848 
z
" clip-path="url(#pcd4a4f5258)" style="fill: #ffffff; stroke: #595a5b; stroke-width: 2; stroke-linejoin: miter"/>
   </g>
   <g id="text_1">
    <!-- 7 or fewer loyal -->
    <g style="fill: #8f4100" transform="translate(44.517141 33.35615) scale(0.21 -0.21)">
     <defs>
      <path id="Lato-Bold-37" d="M 3494 4627 
L 3494 4285 
Q 3494 4131 3462 4036 
Q 3430 3942 3398 3878 
L 1645 269 
Q 1590 157 1491 78 
Q 1392 0 1226 0 
L 653 0 
L 2442 3536 
Q 2502 3645 2561 3736 
Q 2621 3827 2694 3910 
L 480 3910 
Q 406 3910 352 3964 
Q 298 4019 298 4093 
L 298 4627 
L 3494 4627 
z
" transform="scale(0.015625)"/>
      <path id="Lato-Bold-20" transform="scale(0.015625)"/>
      <path id="Lato-Bold-6f" d="M 1843 3334 
Q 2208 3334 2507 3216 
Q 2806 3098 3019 2880 
Q 3232 2662 3347 2348 
Q 3462 2035 3462 1648 
Q 3462 1258 3347 944 
Q 3232 630 3019 409 
Q 2806 189 2507 70 
Q 2208 -48 1843 -48 
Q 1475 -48 1174 70 
Q 874 189 661 409 
Q 448 630 331 944 
Q 214 1258 214 1648 
Q 214 2035 331 2348 
Q 448 2662 661 2880 
Q 874 3098 1174 3216 
Q 1475 3334 1843 3334 
z
M 1843 560 
Q 2253 560 2449 835 
Q 2646 1110 2646 1642 
Q 2646 2173 2449 2451 
Q 2253 2730 1843 2730 
Q 1427 2730 1227 2450 
Q 1027 2170 1027 1642 
Q 1027 1114 1227 837 
Q 1427 560 1843 560 
z
" transform="scale(0.015625)"/>
      <path id="Lato-Bold-72" d="M 1136 2714 
Q 1290 3008 1501 3176 
Q 1712 3344 2000 3344 
Q 2227 3344 2365 3245 
L 2314 2653 
Q 2298 2595 2267 2571 
Q 2237 2547 2186 2547 
Q 2138 2547 2043 2563 
Q 1949 2579 1859 2579 
Q 1728 2579 1625 2540 
Q 1523 2502 1441 2430 
Q 1360 2358 1297 2256 
Q 1235 2154 1181 2022 
L 1181 0 
L 390 0 
L 390 3283 
L 854 3283 
Q 976 3283 1024 3240 
Q 1072 3197 1088 3085 
L 1136 2714 
z
" transform="scale(0.015625)"/>
      <path id="Lato-Bold-66" d="M 621 0 
L 621 2688 
L 336 2733 
Q 243 2752 187 2798 
Q 131 2845 131 2931 
L 131 3254 
L 621 3254 
L 621 3498 
Q 621 3779 705 4003 
Q 790 4227 948 4384 
Q 1107 4541 1334 4624 
Q 1562 4707 1846 4707 
Q 2074 4707 2269 4646 
L 2253 4250 
Q 2250 4205 2227 4177 
Q 2205 4150 2168 4136 
Q 2131 4122 2083 4117 
Q 2035 4112 1981 4112 
Q 1840 4112 1729 4081 
Q 1619 4051 1542 3976 
Q 1466 3901 1426 3777 
Q 1386 3654 1386 3472 
L 1386 3254 
L 2240 3254 
L 2240 2691 
L 1411 2691 
L 1411 0 
L 621 0 
z
" transform="scale(0.015625)"/>
      <path id="Lato-Bold-65" d="M 2506 2019 
Q 2506 2173 2462 2309 
Q 2419 2445 2332 2547 
Q 2246 2650 2113 2709 
Q 1981 2768 1805 2768 
Q 1462 2768 1265 2573 
Q 1069 2378 1014 2019 
L 2506 2019 
z
M 998 1542 
Q 1018 1290 1088 1106 
Q 1158 922 1273 802 
Q 1389 682 1547 622 
Q 1706 563 1898 563 
Q 2090 563 2229 608 
Q 2368 653 2472 707 
Q 2576 762 2654 806 
Q 2733 851 2806 851 
Q 2906 851 2954 778 
L 3181 490 
Q 3050 336 2886 232 
Q 2723 128 2545 65 
Q 2368 3 2184 -22 
Q 2000 -48 1827 -48 
Q 1485 -48 1190 65 
Q 896 179 678 401 
Q 461 624 336 952 
Q 211 1280 211 1712 
Q 211 2048 320 2344 
Q 429 2640 632 2859 
Q 835 3078 1128 3206 
Q 1421 3334 1789 3334 
Q 2099 3334 2361 3235 
Q 2624 3136 2813 2945 
Q 3002 2755 3109 2478 
Q 3216 2202 3216 1846 
Q 3216 1667 3177 1604 
Q 3139 1542 3030 1542 
L 998 1542 
z
" transform="scale(0.015625)"/>
      <path id="Lato-Bold-77" d="M 5078 3283 
L 4035 0 
L 3402 0 
Q 3293 0 3251 141 
L 2662 2038 
Q 2634 2134 2610 2228 
Q 2586 2323 2570 2419 
Q 2550 2323 2526 2225 
Q 2502 2128 2474 2032 
L 1875 141 
Q 1837 0 1706 0 
L 1098 0 
L 58 3283 
L 688 3283 
Q 774 3283 835 3241 
Q 896 3200 915 3136 
L 1386 1382 
Q 1421 1238 1448 1100 
Q 1475 963 1494 826 
Q 1530 963 1570 1100 
Q 1610 1238 1654 1382 
L 2198 3142 
Q 2218 3206 2274 3248 
Q 2330 3290 2410 3290 
L 2758 3290 
Q 2842 3290 2901 3248 
Q 2960 3206 2979 3142 
L 3507 1382 
Q 3549 1238 3585 1099 
Q 3622 960 3658 822 
Q 3699 1094 3776 1382 
L 4259 3136 
Q 4282 3200 4339 3241 
Q 4397 3283 4477 3283 
L 5078 3283 
z
" transform="scale(0.015625)"/>
      <path id="Lato-Bold-6c" d="M 1190 4755 
L 1190 0 
L 400 0 
L 400 4755 
L 1190 4755 
z
" transform="scale(0.015625)"/>
      <path id="Lato-Bold-79" d="M 3373 3283 
L 1584 -902 
Q 1549 -986 1493 -1029 
Q 1437 -1072 1322 -1072 
L 733 -1072 
L 1347 246 
L 19 3283 
L 714 3283 
Q 806 3283 859 3238 
Q 912 3194 938 3136 
L 1635 1434 
Q 1670 1347 1694 1260 
Q 1718 1174 1741 1085 
Q 1770 1174 1798 1262 
Q 1827 1350 1862 1437 
L 2522 3136 
Q 2547 3200 2606 3241 
Q 2666 3283 2739 3283 
L 3373 3283 
z
" transform="scale(0.015625)"/>
      <path id="Lato-Bold-61" d="M 2125 1402 
Q 1782 1386 1548 1342 
Q 1315 1299 1174 1232 
Q 1034 1165 973 1075 
Q 912 986 912 880 
Q 912 672 1035 582 
Q 1158 493 1357 493 
Q 1600 493 1777 581 
Q 1955 669 2125 848 
L 2125 1402 
z
M 314 2826 
Q 880 3344 1677 3344 
Q 1965 3344 2192 3249 
Q 2419 3155 2576 2987 
Q 2733 2819 2814 2585 
Q 2896 2352 2896 2074 
L 2896 0 
L 2538 0 
Q 2426 0 2365 33 
Q 2304 67 2269 170 
L 2198 406 
Q 2074 294 1955 209 
Q 1837 125 1709 67 
Q 1581 10 1435 -20 
Q 1290 -51 1114 -51 
Q 906 -51 730 5 
Q 554 61 426 173 
Q 298 285 227 451 
Q 157 618 157 838 
Q 157 963 198 1086 
Q 240 1210 334 1322 
Q 429 1434 579 1533 
Q 730 1632 949 1705 
Q 1168 1779 1459 1825 
Q 1750 1872 2125 1882 
L 2125 2074 
Q 2125 2403 1984 2561 
Q 1843 2720 1578 2720 
Q 1386 2720 1259 2675 
Q 1133 2630 1037 2574 
Q 941 2518 862 2473 
Q 784 2429 688 2429 
Q 605 2429 547 2472 
Q 490 2515 454 2573 
L 314 2826 
z
" transform="scale(0.015625)"/>
     </defs>
     <use xlink:href="#Lato-Bold-37"/>
     <use xlink:href="#Lato-Bold-20" transform="translate(58 0)"/>
     <use xlink:href="#Lato-Bold-6f" transform="translate(82.300003 0)"/>
     <use xlink:href="#Lato-Bold-72" transform="translate(139.750015 0)"/>
     <use xlink:href="#Lato-Bold-20" transform="translate(177.050018 0)"/>
     <use xlink:href="#Lato-Bold-66" transform="translate(201.350021 0)"/>
     <use xlink:href="#Lato-Bold-65" transform="translate(237.200027 0)"/>
     <use xlink:href="#Lato-Bold-77" transform="translate(290.600037 0)"/>
     <use xlink:href="#Lato-Bold-65" transform="translate(370.850052 0)"/>
     <use xlink:href="#Lato-Bold-72" transform="translate(424.250061 0)"/>
     <use xlink:href="#Lato-Bold-20" transform="translate(461.550064 0)"/>
     <use xlink:href="#Lato-Bold-6c" transform="translate(485.850067 0)"/>
     <use xlink:href="#Lato-Bold-6f" transform="translate(510.700073 0)"/>
     <use xlink:href="#Lato-Bold-79" transform="translate(568.150085 0)"/>
     <use xlink:href="#Lato-Bold-61" transform="translate(620.900085 0)"/>
     <use xlink:href="#Lato-Bold-6c" transform="translate(671.650085 0)"/>
    </g>
   </g>
   <g id="text_2">
    <!-- Both price low -->
    <g style="fill: #1a1a1a" transform="translate(49.486594 81.202592) scale(0.21 -0.21)">
     <defs>
      <path id="Lato-Bold-42" d="M 2246 672 
Q 2486 672 2649 729 
Q 2813 787 2910 883 
Q 3008 979 3051 1107 
Q 3094 1235 3094 1379 
Q 3094 1530 3046 1650 
Q 2998 1770 2896 1854 
Q 2794 1939 2632 1984 
Q 2470 2029 2243 2029 
L 1376 2029 
L 1376 672 
L 2246 672 
z
M 1376 3962 
L 1376 2624 
L 2061 2624 
Q 2502 2624 2728 2784 
Q 2954 2944 2954 3293 
Q 2954 3654 2749 3808 
Q 2544 3962 2109 3962 
L 1376 3962 
z
M 2109 4627 
Q 2563 4627 2886 4540 
Q 3210 4454 3416 4294 
Q 3622 4134 3718 3907 
Q 3814 3680 3814 3395 
Q 3814 3232 3766 3083 
Q 3718 2934 3617 2804 
Q 3517 2675 3361 2569 
Q 3206 2464 2992 2390 
Q 3946 2176 3946 1360 
Q 3946 1066 3834 816 
Q 3722 566 3507 385 
Q 3293 205 2979 102 
Q 2666 0 2262 0 
L 515 0 
L 515 4627 
L 2109 4627 
z
" transform="scale(0.015625)"/>
      <path id="Lato-Bold-74" d="M 1485 -51 
Q 1056 -51 827 190 
Q 598 432 598 858 
L 598 2691 
L 262 2691 
Q 198 2691 153 2732 
Q 109 2774 109 2858 
L 109 3171 
L 637 3258 
L 803 4154 
Q 819 4218 864 4253 
Q 909 4288 979 4288 
L 1389 4288 
L 1389 3254 
L 2266 3254 
L 2266 2691 
L 1389 2691 
L 1389 912 
Q 1389 758 1464 672 
Q 1539 586 1670 586 
Q 1744 586 1793 603 
Q 1843 621 1880 640 
Q 1917 659 1945 676 
Q 1974 694 2003 694 
Q 2038 694 2060 676 
Q 2083 659 2109 624 
L 2346 240 
Q 2173 96 1949 22 
Q 1725 -51 1485 -51 
z
" transform="scale(0.015625)"/>
      <path id="Lato-Bold-68" d="M 1181 2931 
Q 1373 3110 1603 3222 
Q 1834 3334 2144 3334 
Q 2413 3334 2621 3243 
Q 2829 3152 2968 2987 
Q 3107 2822 3179 2593 
Q 3251 2365 3251 2090 
L 3251 0 
L 2461 0 
L 2461 2090 
Q 2461 2390 2323 2555 
Q 2186 2720 1904 2720 
Q 1699 2720 1520 2627 
Q 1341 2534 1181 2374 
L 1181 0 
L 390 0 
L 390 4755 
L 1181 4755 
L 1181 2931 
z
" transform="scale(0.015625)"/>
      <path id="Lato-Bold-70" d="M 1181 851 
Q 1315 688 1473 621 
Q 1632 554 1818 554 
Q 1997 554 2141 621 
Q 2285 688 2385 825 
Q 2486 963 2540 1172 
Q 2595 1382 2595 1667 
Q 2595 1955 2548 2155 
Q 2502 2355 2416 2480 
Q 2330 2605 2206 2662 
Q 2083 2720 1926 2720 
Q 1680 2720 1507 2616 
Q 1334 2512 1181 2323 
L 1181 851 
z
M 1139 2835 
Q 1341 3062 1597 3203 
Q 1853 3344 2198 3344 
Q 2467 3344 2689 3232 
Q 2912 3120 3073 2907 
Q 3235 2694 3323 2382 
Q 3411 2070 3411 1667 
Q 3411 1299 3312 985 
Q 3213 672 3029 441 
Q 2845 211 2584 81 
Q 2323 -48 2000 -48 
Q 1725 -48 1529 37 
Q 1334 122 1181 272 
L 1181 -1072 
L 390 -1072 
L 390 3283 
L 874 3283 
Q 1027 3283 1075 3139 
L 1139 2835 
z
" transform="scale(0.015625)"/>
      <path id="Lato-Bold-69" d="M 1210 3283 
L 1210 0 
L 416 0 
L 416 3283 
L 1210 3283 
z
M 1318 4240 
Q 1318 4138 1276 4048 
Q 1235 3958 1166 3891 
Q 1098 3824 1005 3784 
Q 912 3744 806 3744 
Q 704 3744 613 3784 
Q 522 3824 454 3891 
Q 387 3958 347 4048 
Q 307 4138 307 4240 
Q 307 4346 347 4438 
Q 387 4531 454 4598 
Q 522 4666 613 4706 
Q 704 4746 806 4746 
Q 912 4746 1005 4706 
Q 1098 4666 1166 4598 
Q 1235 4531 1276 4438 
Q 1318 4346 1318 4240 
z
" transform="scale(0.015625)"/>
      <path id="Lato-Bold-63" d="M 2742 2589 
Q 2707 2544 2673 2518 
Q 2640 2493 2576 2493 
Q 2515 2493 2457 2529 
Q 2400 2566 2320 2612 
Q 2240 2659 2129 2696 
Q 2019 2733 1856 2733 
Q 1648 2733 1491 2657 
Q 1334 2582 1230 2441 
Q 1126 2301 1075 2101 
Q 1024 1901 1024 1648 
Q 1024 1386 1080 1181 
Q 1136 976 1241 837 
Q 1347 698 1497 626 
Q 1648 554 1837 554 
Q 2026 554 2142 600 
Q 2259 646 2339 702 
Q 2419 758 2478 804 
Q 2538 851 2611 851 
Q 2707 851 2755 778 
L 2982 490 
Q 2851 336 2697 232 
Q 2544 128 2379 65 
Q 2214 3 2040 -22 
Q 1866 -48 1693 -48 
Q 1389 -48 1120 65 
Q 851 179 649 396 
Q 448 614 331 929 
Q 214 1245 214 1648 
Q 214 2010 318 2318 
Q 422 2627 624 2852 
Q 826 3078 1123 3206 
Q 1421 3334 1808 3334 
Q 2176 3334 2453 3216 
Q 2730 3098 2950 2877 
L 2742 2589 
z
" transform="scale(0.015625)"/>
     </defs>
     <use xlink:href="#Lato-Bold-42"/>
     <use xlink:href="#Lato-Bold-6f" transform="translate(65.850006 0)"/>
     <use xlink:href="#Lato-Bold-74" transform="translate(123.300018 0)"/>
     <use xlink:href="#Lato-Bold-68" transform="translate(160.500015 0)"/>
     <use xlink:href="#Lato-Bold-20" transform="translate(216.900024 0)"/>
     <use xlink:href="#Lato-Bold-70" transform="translate(241.200027 0)"/>
     <use xlink:href="#Lato-Bold-72" transform="translate(298.000031 0)"/>
     <use xlink:href="#Lato-Bold-69" transform="translate(335.300034 0)"/>
     <use xlink:href="#Lato-Bold-63" transform="translate(360.700027 0)"/>
     <use xlink:href="#Lato-Bold-65" transform="translate(408.90004 0)"/>
     <use xlink:href="#Lato-Bold-20" transform="translate(462.300049 0)"/>
     <use xlink:href="#Lato-Bold-6c" transform="translate(486.600052 0)"/>
     <use xlink:href="#Lato-Bold-6f" transform="translate(511.450058 0)"/>
     <use xlink:href="#Lato-Bold-77" transform="translate(568.90007 0)"/>
    </g>
    <!-- (prisoners' dilemma) -->
    <g style="fill: #1a1a1a" transform="translate(24.094641 104.502092) scale(0.21 -0.21)">
     <defs>
      <path id="Lato-Bold-28" d="M 918 2006 
Q 918 1347 1078 710 
Q 1238 74 1536 -486 
Q 1568 -550 1573 -600 
Q 1578 -650 1565 -686 
Q 1552 -723 1525 -750 
Q 1498 -778 1466 -797 
L 1114 -1011 
Q 877 -646 710 -278 
Q 544 90 438 464 
Q 333 838 283 1222 
Q 234 1606 234 2006 
Q 234 2406 283 2792 
Q 333 3178 438 3552 
Q 544 3926 710 4292 
Q 877 4659 1114 5024 
L 1466 4813 
Q 1498 4794 1525 4766 
Q 1552 4739 1565 4702 
Q 1578 4666 1573 4616 
Q 1568 4566 1536 4499 
Q 1238 3942 1078 3304 
Q 918 2666 918 2006 
z
" transform="scale(0.015625)"/>
      <path id="Lato-Bold-73" d="M 2394 2643 
Q 2362 2592 2326 2571 
Q 2291 2550 2237 2550 
Q 2179 2550 2113 2582 
Q 2048 2614 1961 2654 
Q 1875 2694 1764 2726 
Q 1654 2758 1504 2758 
Q 1270 2758 1137 2659 
Q 1005 2560 1005 2400 
Q 1005 2294 1073 2222 
Q 1142 2150 1256 2096 
Q 1370 2042 1514 1998 
Q 1658 1955 1806 1904 
Q 1955 1853 2099 1787 
Q 2243 1722 2356 1621 
Q 2470 1520 2539 1379 
Q 2608 1238 2608 1040 
Q 2608 803 2523 603 
Q 2438 403 2272 257 
Q 2106 112 1861 30 
Q 1616 -51 1296 -51 
Q 1126 -51 964 -20 
Q 803 10 654 64 
Q 506 118 379 192 
Q 253 266 157 352 
L 339 653 
Q 374 707 422 736 
Q 470 765 544 765 
Q 618 765 683 723 
Q 749 682 835 634 
Q 922 586 1038 544 
Q 1155 502 1334 502 
Q 1475 502 1576 536 
Q 1677 570 1742 624 
Q 1808 678 1838 750 
Q 1869 822 1869 899 
Q 1869 1014 1800 1088 
Q 1731 1162 1617 1216 
Q 1504 1270 1358 1313 
Q 1213 1357 1061 1408 
Q 909 1459 763 1528 
Q 618 1597 504 1702 
Q 390 1808 321 1961 
Q 253 2115 253 2333 
Q 253 2534 333 2716 
Q 413 2899 568 3035 
Q 723 3171 955 3252 
Q 1187 3334 1491 3334 
Q 1830 3334 2108 3222 
Q 2387 3110 2573 2928 
L 2394 2643 
z
" transform="scale(0.015625)"/>
      <path id="Lato-Bold-6e" d="M 1130 2880 
Q 1229 2979 1339 3064 
Q 1450 3149 1573 3208 
Q 1696 3267 1837 3300 
Q 1978 3334 2144 3334 
Q 2413 3334 2621 3243 
Q 2829 3152 2968 2987 
Q 3107 2822 3179 2593 
Q 3251 2365 3251 2090 
L 3251 0 
L 2461 0 
L 2461 2090 
Q 2461 2390 2323 2555 
Q 2186 2720 1904 2720 
Q 1699 2720 1520 2627 
Q 1341 2534 1181 2374 
L 1181 0 
L 390 0 
L 390 3283 
L 874 3283 
Q 1027 3283 1075 3139 
L 1130 2880 
z
" transform="scale(0.015625)"/>
      <path id="Lato-Bold-27" d="M 1021 4627 
L 1021 3706 
L 950 3206 
Q 925 3066 867 2990 
Q 810 2915 675 2915 
Q 557 2915 493 2990 
Q 429 3066 403 3206 
L 333 3706 
L 333 4627 
L 1021 4627 
z
" transform="scale(0.015625)"/>
      <path id="Lato-Bold-64" d="M 2451 2445 
Q 2317 2608 2158 2675 
Q 2000 2742 1818 2742 
Q 1638 2742 1494 2675 
Q 1350 2608 1248 2472 
Q 1146 2336 1091 2126 
Q 1037 1917 1037 1632 
Q 1037 1344 1083 1144 
Q 1130 944 1216 817 
Q 1302 691 1427 635 
Q 1552 579 1706 579 
Q 1952 579 2125 681 
Q 2298 784 2451 973 
L 2451 2445 
z
M 3242 4755 
L 3242 0 
L 2758 0 
Q 2602 0 2560 144 
L 2493 461 
Q 2294 234 2036 93 
Q 1779 -48 1437 -48 
Q 1168 -48 944 64 
Q 720 176 558 389 
Q 397 602 309 915 
Q 221 1229 221 1632 
Q 221 1997 320 2310 
Q 419 2624 604 2854 
Q 790 3085 1049 3214 
Q 1309 3344 1632 3344 
Q 1907 3344 2102 3257 
Q 2298 3171 2451 3024 
L 2451 4755 
L 3242 4755 
z
" transform="scale(0.015625)"/>
      <path id="Lato-Bold-6d" d="M 390 0 
L 390 3283 
L 874 3283 
Q 1027 3283 1075 3139 
L 1126 2896 
Q 1213 2992 1307 3072 
Q 1402 3152 1509 3209 
Q 1616 3267 1739 3300 
Q 1862 3334 2010 3334 
Q 2320 3334 2520 3166 
Q 2720 2998 2819 2720 
Q 2896 2883 3011 3000 
Q 3126 3117 3264 3190 
Q 3402 3264 3557 3299 
Q 3712 3334 3869 3334 
Q 4141 3334 4352 3251 
Q 4563 3168 4707 3008 
Q 4851 2848 4926 2617 
Q 5002 2387 5002 2090 
L 5002 0 
L 4211 0 
L 4211 2090 
Q 4211 2403 4073 2561 
Q 3936 2720 3670 2720 
Q 3549 2720 3445 2678 
Q 3341 2637 3262 2558 
Q 3184 2480 3139 2361 
Q 3094 2243 3094 2090 
L 3094 0 
L 2301 0 
L 2301 2090 
Q 2301 2419 2168 2569 
Q 2035 2720 1779 2720 
Q 1606 2720 1457 2635 
Q 1309 2550 1181 2403 
L 1181 0 
L 390 0 
z
" transform="scale(0.015625)"/>
      <path id="Lato-Bold-29" d="M 835 2006 
Q 835 2666 676 3304 
Q 518 3942 221 4499 
Q 186 4566 181 4616 
Q 176 4666 189 4702 
Q 202 4739 229 4766 
Q 256 4794 291 4813 
L 643 5024 
Q 880 4659 1046 4292 
Q 1213 3926 1318 3552 
Q 1424 3178 1472 2792 
Q 1520 2406 1520 2006 
Q 1520 1606 1472 1222 
Q 1424 838 1318 464 
Q 1213 90 1046 -278 
Q 880 -646 643 -1011 
L 291 -797 
Q 256 -778 229 -750 
Q 202 -723 189 -686 
Q 176 -650 181 -600 
Q 186 -550 221 -486 
Q 518 74 676 710 
Q 835 1347 835 2006 
z
" transform="scale(0.015625)"/>
     </defs>
     <use xlink:href="#Lato-Bold-28"/>
     <use xlink:href="#Lato-Bold-70" transform="translate(27.449997 0)"/>
     <use xlink:href="#Lato-Bold-72" transform="translate(84.25 0)"/>
     <use xlink:href="#Lato-Bold-69" transform="translate(121.550003 0)"/>
     <use xlink:href="#Lato-Bold-73" transform="translate(146.949997 0)"/>
     <use xlink:href="#Lato-Bold-6f" transform="translate(190.899994 0)"/>
     <use xlink:href="#Lato-Bold-6e" transform="translate(248.350006 0)"/>
     <use xlink:href="#Lato-Bold-65" transform="translate(304.750015 0)"/>
     <use xlink:href="#Lato-Bold-72" transform="translate(358.150024 0)"/>
     <use xlink:href="#Lato-Bold-73" transform="translate(395.450027 0)"/>
     <use xlink:href="#Lato-Bold-27" transform="translate(439.400024 0)"/>
     <use xlink:href="#Lato-Bold-20" transform="translate(460.550018 0)"/>
     <use xlink:href="#Lato-Bold-64" transform="translate(484.850021 0)"/>
     <use xlink:href="#Lato-Bold-69" transform="translate(541.600021 0)"/>
     <use xlink:href="#Lato-Bold-6c" transform="translate(567.000015 0)"/>
     <use xlink:href="#Lato-Bold-65" transform="translate(591.850021 0)"/>
     <use xlink:href="#Lato-Bold-6d" transform="translate(645.250031 0)"/>
     <use xlink:href="#Lato-Bold-6d" transform="translate(729.000046 0)"/>
     <use xlink:href="#Lato-Bold-61" transform="translate(812.750061 0)"/>
     <use xlink:href="#Lato-Bold-29" transform="translate(863.500061 0)"/>
    </g>
   </g>
   <g id="text_3">
    <!-- fewer loyal case: 7 -->
    <g style="fill: #595a5b" transform="translate(48.452687 148.775428) scale(0.17 -0.17)">
     <defs>
      <path id="Lato-Regular-66" d="M 662 0 
L 662 2755 
L 304 2797 
Q 237 2813 193 2846 
Q 150 2880 150 2944 
L 150 3178 
L 662 3178 
L 662 3491 
Q 662 3770 740 3986 
Q 819 4202 964 4350 
Q 1110 4499 1315 4576 
Q 1520 4653 1776 4653 
Q 1994 4653 2176 4589 
L 2163 4304 
Q 2157 4227 2078 4220 
Q 2000 4214 1869 4214 
Q 1722 4214 1602 4176 
Q 1482 4138 1395 4051 
Q 1309 3965 1262 3824 
Q 1216 3683 1216 3475 
L 1216 3178 
L 2150 3178 
L 2150 2765 
L 1235 2765 
L 1235 0 
L 662 0 
z
" transform="scale(0.015625)"/>
      <path id="Lato-Regular-65" d="M 2621 1974 
Q 2621 2173 2565 2337 
Q 2509 2502 2401 2622 
Q 2294 2742 2140 2808 
Q 1987 2874 1792 2874 
Q 1382 2874 1144 2635 
Q 906 2397 848 1974 
L 2621 1974 
z
M 3082 454 
Q 2976 326 2829 232 
Q 2682 138 2514 77 
Q 2346 16 2166 -14 
Q 1987 -45 1811 -45 
Q 1475 -45 1192 68 
Q 909 182 702 401 
Q 496 621 381 944 
Q 266 1267 266 1686 
Q 266 2026 370 2320 
Q 474 2614 669 2830 
Q 864 3046 1145 3169 
Q 1427 3293 1779 3293 
Q 2070 3293 2318 3195 
Q 2566 3098 2747 2914 
Q 2928 2730 3030 2459 
Q 3133 2189 3133 1843 
Q 3133 1709 3104 1664 
Q 3075 1619 2995 1619 
L 829 1619 
Q 838 1312 913 1085 
Q 989 858 1123 706 
Q 1258 554 1443 478 
Q 1629 403 1859 403 
Q 2074 403 2229 452 
Q 2384 502 2496 560 
Q 2608 618 2683 667 
Q 2758 717 2813 717 
Q 2883 717 2922 662 
L 3082 454 
z
" transform="scale(0.015625)"/>
      <path id="Lato-Regular-77" d="M 4922 3242 
L 3872 0 
L 3421 0 
Q 3338 0 3306 109 
L 2589 2307 
Q 2563 2381 2547 2456 
Q 2531 2531 2515 2605 
Q 2499 2531 2483 2456 
Q 2467 2381 2442 2304 
L 1712 109 
Q 1683 0 1584 0 
L 1155 0 
L 106 3242 
L 554 3242 
Q 621 3242 667 3206 
Q 714 3171 730 3123 
L 1350 1037 
Q 1405 806 1437 602 
Q 1466 707 1496 816 
Q 1526 925 1562 1037 
L 2246 3136 
Q 2262 3184 2302 3216 
Q 2342 3248 2400 3248 
L 2650 3248 
Q 2714 3248 2755 3216 
Q 2797 3184 2813 3136 
L 3482 1037 
Q 3517 925 3545 816 
Q 3574 707 3600 602 
Q 3616 707 3640 814 
Q 3664 922 3693 1037 
L 4326 3123 
Q 4342 3174 4387 3208 
Q 4432 3242 4493 3242 
L 4922 3242 
z
" transform="scale(0.015625)"/>
      <path id="Lato-Regular-72" d="M 992 2592 
Q 1146 2925 1370 3112 
Q 1594 3299 1917 3299 
Q 2019 3299 2113 3276 
Q 2208 3254 2282 3206 
L 2240 2781 
Q 2221 2701 2144 2701 
Q 2099 2701 2012 2720 
Q 1926 2739 1818 2739 
Q 1664 2739 1544 2694 
Q 1424 2650 1329 2562 
Q 1235 2474 1160 2344 
Q 1085 2214 1024 2048 
L 1024 0 
L 451 0 
L 451 3242 
L 778 3242 
Q 870 3242 905 3206 
Q 941 3171 954 3085 
L 992 2592 
z
" transform="scale(0.015625)"/>
      <path id="Lato-Regular-20" transform="scale(0.015625)"/>
      <path id="Lato-Regular-6c" d="M 1040 4714 
L 1040 0 
L 470 0 
L 470 4714 
L 1040 4714 
z
" transform="scale(0.015625)"/>
      <path id="Lato-Regular-6f" d="M 1818 3293 
Q 2173 3293 2457 3174 
Q 2742 3056 2944 2838 
Q 3146 2621 3253 2312 
Q 3360 2003 3360 1622 
Q 3360 1238 3253 931 
Q 3146 624 2944 406 
Q 2742 189 2457 72 
Q 2173 -45 1818 -45 
Q 1459 -45 1172 72 
Q 886 189 684 406 
Q 483 624 376 931 
Q 269 1238 269 1622 
Q 269 2003 376 2312 
Q 483 2621 684 2838 
Q 886 3056 1172 3174 
Q 1459 3293 1818 3293 
z
M 1818 400 
Q 2298 400 2534 721 
Q 2771 1043 2771 1619 
Q 2771 2198 2534 2521 
Q 2298 2845 1818 2845 
Q 1574 2845 1393 2761 
Q 1213 2678 1093 2521 
Q 973 2365 913 2136 
Q 854 1907 854 1619 
Q 854 1043 1092 721 
Q 1331 400 1818 400 
z
" transform="scale(0.015625)"/>
      <path id="Lato-Regular-79" d="M 3248 3242 
L 1440 -957 
Q 1411 -1021 1368 -1059 
Q 1325 -1098 1235 -1098 
L 813 -1098 
L 1405 189 
L 67 3242 
L 560 3242 
Q 634 3242 677 3205 
Q 720 3168 736 3123 
L 1603 1082 
Q 1654 947 1690 800 
Q 1734 950 1786 1085 
L 2627 3123 
Q 2646 3174 2692 3208 
Q 2739 3242 2797 3242 
L 3248 3242 
z
" transform="scale(0.015625)"/>
      <path id="Lato-Regular-61" d="M 2208 1459 
Q 1814 1446 1537 1396 
Q 1261 1347 1086 1267 
Q 912 1187 833 1078 
Q 755 970 755 835 
Q 755 707 796 614 
Q 838 522 910 462 
Q 982 403 1080 376 
Q 1178 349 1290 349 
Q 1440 349 1565 379 
Q 1690 410 1800 467 
Q 1910 525 2011 605 
Q 2112 685 2208 787 
L 2208 1459 
z
M 368 2784 
Q 637 3043 947 3171 
Q 1258 3299 1635 3299 
Q 1907 3299 2118 3209 
Q 2330 3120 2474 2960 
Q 2618 2800 2691 2573 
Q 2765 2346 2765 2074 
L 2765 0 
L 2512 0 
Q 2429 0 2384 27 
Q 2339 54 2314 134 
L 2250 442 
Q 2122 323 2000 232 
Q 1878 141 1744 78 
Q 1610 16 1458 -17 
Q 1306 -51 1120 -51 
Q 931 -51 764 1 
Q 598 54 475 160 
Q 352 266 280 427 
Q 208 589 208 810 
Q 208 1002 313 1179 
Q 419 1357 656 1494 
Q 893 1632 1273 1720 
Q 1654 1808 2208 1821 
L 2208 2074 
Q 2208 2451 2045 2644 
Q 1882 2838 1568 2838 
Q 1357 2838 1214 2785 
Q 1072 2733 968 2667 
Q 864 2602 789 2549 
Q 714 2496 640 2496 
Q 582 2496 540 2526 
Q 499 2557 470 2602 
L 368 2784 
z
" transform="scale(0.015625)"/>
      <path id="Lato-Regular-63" d="M 2707 2666 
Q 2682 2630 2656 2611 
Q 2630 2592 2586 2592 
Q 2538 2592 2480 2632 
Q 2422 2672 2337 2720 
Q 2253 2768 2129 2808 
Q 2006 2848 1827 2848 
Q 1587 2848 1404 2763 
Q 1222 2678 1099 2518 
Q 976 2358 913 2131 
Q 851 1904 851 1622 
Q 851 1328 918 1099 
Q 986 870 1109 715 
Q 1232 560 1406 478 
Q 1581 397 1798 397 
Q 2006 397 2140 446 
Q 2275 496 2363 557 
Q 2451 618 2510 667 
Q 2570 717 2627 717 
Q 2698 717 2736 662 
L 2896 454 
Q 2790 323 2656 230 
Q 2522 138 2366 75 
Q 2211 13 2041 -16 
Q 1872 -45 1696 -45 
Q 1392 -45 1131 67 
Q 870 179 678 392 
Q 486 605 377 915 
Q 269 1226 269 1622 
Q 269 1984 369 2291 
Q 470 2598 664 2820 
Q 858 3043 1141 3168 
Q 1424 3293 1792 3293 
Q 2134 3293 2395 3182 
Q 2656 3072 2858 2870 
L 2707 2666 
z
" transform="scale(0.015625)"/>
      <path id="Lato-Regular-73" d="M 2339 2707 
Q 2301 2637 2221 2637 
Q 2173 2637 2112 2672 
Q 2051 2707 1963 2750 
Q 1875 2794 1753 2830 
Q 1632 2867 1466 2867 
Q 1322 2867 1206 2830 
Q 1091 2794 1009 2730 
Q 928 2666 885 2581 
Q 842 2496 842 2397 
Q 842 2272 914 2189 
Q 986 2106 1104 2045 
Q 1222 1984 1372 1937 
Q 1523 1891 1681 1838 
Q 1840 1786 1990 1722 
Q 2141 1658 2259 1562 
Q 2378 1466 2450 1326 
Q 2522 1187 2522 992 
Q 2522 768 2442 577 
Q 2362 387 2205 248 
Q 2048 109 1821 29 
Q 1594 -51 1296 -51 
Q 957 -51 681 59 
Q 406 170 214 342 
L 349 560 
Q 374 602 409 624 
Q 445 646 499 646 
Q 557 646 621 601 
Q 685 557 776 502 
Q 867 448 998 403 
Q 1130 358 1325 358 
Q 1491 358 1616 401 
Q 1741 445 1824 518 
Q 1907 592 1947 688 
Q 1987 784 1987 893 
Q 1987 1027 1915 1115 
Q 1843 1203 1724 1265 
Q 1606 1328 1454 1374 
Q 1302 1421 1144 1472 
Q 986 1523 834 1588 
Q 682 1654 563 1753 
Q 445 1853 373 1998 
Q 301 2144 301 2352 
Q 301 2538 377 2709 
Q 454 2880 601 3009 
Q 749 3139 963 3216 
Q 1178 3293 1453 3293 
Q 1773 3293 2027 3192 
Q 2282 3091 2467 2915 
L 2339 2707 
z
" transform="scale(0.015625)"/>
      <path id="Lato-Regular-3a" d="M 403 352 
Q 403 435 433 508 
Q 464 582 517 636 
Q 570 691 643 723 
Q 717 755 800 755 
Q 883 755 956 723 
Q 1030 691 1084 636 
Q 1139 582 1171 508 
Q 1203 435 1203 352 
Q 1203 266 1171 194 
Q 1139 122 1084 67 
Q 1030 13 956 -17 
Q 883 -48 800 -48 
Q 717 -48 643 -17 
Q 570 13 517 67 
Q 464 122 433 194 
Q 403 266 403 352 
z
M 403 2784 
Q 403 2867 433 2940 
Q 464 3014 517 3068 
Q 570 3123 643 3155 
Q 717 3187 800 3187 
Q 883 3187 956 3155 
Q 1030 3123 1084 3068 
Q 1139 3014 1171 2940 
Q 1203 2867 1203 2784 
Q 1203 2698 1171 2626 
Q 1139 2554 1084 2499 
Q 1030 2445 956 2414 
Q 883 2384 800 2384 
Q 717 2384 643 2414 
Q 570 2445 517 2499 
Q 464 2554 433 2626 
Q 403 2698 403 2784 
z
" transform="scale(0.015625)"/>
      <path id="Lato-Regular-37" d="M 3459 4586 
L 3459 4330 
Q 3459 4221 3435 4150 
Q 3411 4080 3389 4032 
L 1488 202 
Q 1446 118 1372 59 
Q 1299 0 1178 0 
L 768 0 
L 2694 3782 
Q 2736 3862 2781 3929 
Q 2826 3997 2877 4058 
L 483 4058 
Q 429 4058 387 4101 
Q 346 4144 346 4198 
L 346 4586 
L 3459 4586 
z
" transform="scale(0.015625)"/>
     </defs>
     <use xlink:href="#Lato-Regular-66"/>
     <use xlink:href="#Lato-Regular-65" transform="translate(35.050003 0)"/>
     <use xlink:href="#Lato-Regular-77" transform="translate(87.850006 0)"/>
     <use xlink:href="#Lato-Regular-65" transform="translate(166.400024 0)"/>
     <use xlink:href="#Lato-Regular-72" transform="translate(219.200027 0)"/>
     <use xlink:href="#Lato-Regular-20" transform="translate(255.600037 0)"/>
     <use xlink:href="#Lato-Regular-6c" transform="translate(281.200043 0)"/>
     <use xlink:href="#Lato-Regular-6f" transform="translate(304.800049 0)"/>
     <use xlink:href="#Lato-Regular-79" transform="translate(361.500061 0)"/>
     <use xlink:href="#Lato-Regular-61" transform="translate(413.050064 0)"/>
     <use xlink:href="#Lato-Regular-6c" transform="translate(462.750076 0)"/>
     <use xlink:href="#Lato-Regular-20" transform="translate(486.350082 0)"/>
     <use xlink:href="#Lato-Regular-63" transform="translate(511.950089 0)"/>
     <use xlink:href="#Lato-Regular-61" transform="translate(559.700089 0)"/>
     <use xlink:href="#Lato-Regular-73" transform="translate(609.400101 0)"/>
     <use xlink:href="#Lato-Regular-65" transform="translate(652.700104 0)"/>
     <use xlink:href="#Lato-Regular-3a" transform="translate(705.500107 0)"/>
     <use xlink:href="#Lato-Regular-20" transform="translate(730.500107 0)"/>
     <use xlink:href="#Lato-Regular-37" transform="translate(756.100113 0)"/>
    </g>
   </g>
   <g id="text_4">
    <!-- 8 to 11 loyal -->
    <g style="fill: #8f4100" transform="translate(302.020312 33.35615) scale(0.21 -0.21)">
     <defs>
      <path id="Lato-Bold-38" d="M 1856 566 
Q 2051 566 2198 622 
Q 2346 678 2446 777 
Q 2547 877 2598 1014 
Q 2650 1152 2650 1312 
Q 2650 1693 2438 1888 
Q 2227 2083 1856 2083 
Q 1485 2083 1273 1888 
Q 1062 1693 1062 1312 
Q 1062 1152 1113 1014 
Q 1165 877 1265 777 
Q 1366 678 1513 622 
Q 1661 566 1856 566 
z
M 1856 4083 
Q 1680 4083 1552 4028 
Q 1424 3974 1339 3883 
Q 1254 3792 1214 3673 
Q 1174 3555 1174 3424 
Q 1174 3286 1208 3156 
Q 1242 3027 1322 2926 
Q 1402 2826 1533 2765 
Q 1664 2704 1856 2704 
Q 2048 2704 2179 2765 
Q 2310 2826 2390 2926 
Q 2470 3027 2504 3156 
Q 2538 3286 2538 3424 
Q 2538 3555 2496 3673 
Q 2454 3792 2371 3883 
Q 2288 3974 2160 4028 
Q 2032 4083 1856 4083 
z
M 2637 2413 
Q 3059 2275 3260 1992 
Q 3462 1709 3462 1299 
Q 3462 992 3345 742 
Q 3229 493 3017 317 
Q 2806 141 2510 45 
Q 2214 -51 1856 -51 
Q 1498 -51 1202 45 
Q 906 141 694 317 
Q 483 493 366 742 
Q 250 992 250 1299 
Q 250 1709 451 1992 
Q 653 2275 1075 2413 
Q 739 2554 571 2813 
Q 403 3072 403 3437 
Q 403 3699 510 3926 
Q 618 4154 810 4322 
Q 1002 4490 1269 4584 
Q 1536 4678 1856 4678 
Q 2176 4678 2443 4584 
Q 2710 4490 2902 4322 
Q 3094 4154 3201 3926 
Q 3309 3699 3309 3437 
Q 3309 3072 3141 2813 
Q 2973 2554 2637 2413 
z
" transform="scale(0.015625)"/>
      <path id="Lato-Bold-31" d="M 3312 592 
L 3312 0 
L 752 0 
L 752 592 
L 1690 592 
L 1690 3290 
Q 1690 3450 1699 3619 
L 1034 3062 
Q 976 3018 920 3006 
Q 864 2995 814 3004 
Q 765 3014 726 3038 
Q 688 3062 669 3091 
L 419 3434 
L 1830 4634 
L 2480 4634 
L 2480 592 
L 3312 592 
z
" transform="scale(0.015625)"/>
     </defs>
     <use xlink:href="#Lato-Bold-38"/>
     <use xlink:href="#Lato-Bold-20" transform="translate(58 0)"/>
     <use xlink:href="#Lato-Bold-74" transform="translate(82.300003 0)"/>
     <use xlink:href="#Lato-Bold-6f" transform="translate(119.5 0)"/>
     <use xlink:href="#Lato-Bold-20" transform="translate(176.950012 0)"/>
     <use xlink:href="#Lato-Bold-31" transform="translate(201.250015 0)"/>
     <use xlink:href="#Lato-Bold-31" transform="translate(259.250015 0)"/>
     <use xlink:href="#Lato-Bold-20" transform="translate(317.250015 0)"/>
     <use xlink:href="#Lato-Bold-6c" transform="translate(341.550018 0)"/>
     <use xlink:href="#Lato-Bold-6f" transform="translate(366.400024 0)"/>
     <use xlink:href="#Lato-Bold-79" transform="translate(423.850037 0)"/>
     <use xlink:href="#Lato-Bold-61" transform="translate(476.600037 0)"/>
     <use xlink:href="#Lato-Bold-6c" transform="translate(527.350037 0)"/>
    </g>
   </g>
   <g id="text_5">
    <!-- Two equilibria: -->
    <g style="fill: #1a1a1a" transform="translate(290.681953 81.596014) scale(0.21 -0.21)">
     <defs>
      <path id="Lato-Bold-54" d="M 3747 3920 
L 2352 3920 
L 2352 0 
L 1491 0 
L 1491 3920 
L 96 3920 
L 96 4627 
L 3747 4627 
L 3747 3920 
z
" transform="scale(0.015625)"/>
      <path id="Lato-Bold-71" d="M 2451 2445 
Q 2320 2608 2160 2675 
Q 2000 2742 1818 2742 
Q 1638 2742 1494 2675 
Q 1350 2608 1248 2472 
Q 1146 2336 1091 2126 
Q 1037 1917 1037 1632 
Q 1037 1344 1083 1144 
Q 1130 944 1216 817 
Q 1302 691 1427 635 
Q 1552 579 1706 579 
Q 1952 579 2125 681 
Q 2298 784 2451 973 
L 2451 2445 
z
M 3242 3283 
L 3242 -1072 
L 2451 -1072 
L 2451 416 
Q 2256 208 2009 80 
Q 1763 -48 1437 -48 
Q 1168 -48 944 64 
Q 720 176 558 389 
Q 397 602 309 915 
Q 221 1229 221 1632 
Q 221 1997 320 2310 
Q 419 2624 604 2854 
Q 790 3085 1049 3214 
Q 1309 3344 1632 3344 
Q 1939 3344 2147 3238 
Q 2355 3133 2518 2954 
L 2560 3139 
Q 2602 3283 2758 3283 
L 3242 3283 
z
" transform="scale(0.015625)"/>
      <path id="Lato-Bold-75" d="M 3219 3283 
L 3219 0 
L 2736 0 
Q 2579 0 2538 144 
L 2483 406 
Q 2282 202 2038 75 
Q 1795 -51 1466 -51 
Q 1197 -51 990 40 
Q 784 131 643 297 
Q 502 464 430 693 
Q 358 922 358 1197 
L 358 3283 
L 1149 3283 
L 1149 1197 
Q 1149 896 1288 731 
Q 1427 566 1706 566 
Q 1910 566 2089 657 
Q 2269 749 2429 909 
L 2429 3283 
L 3219 3283 
z
" transform="scale(0.015625)"/>
      <path id="Lato-Bold-62" d="M 1181 851 
Q 1315 688 1473 621 
Q 1632 554 1808 554 
Q 1990 554 2136 619 
Q 2282 685 2384 824 
Q 2486 963 2540 1179 
Q 2595 1395 2595 1696 
Q 2595 2237 2416 2478 
Q 2237 2720 1901 2720 
Q 1674 2720 1504 2616 
Q 1334 2512 1181 2323 
L 1181 851 
z
M 1181 2880 
Q 1379 3088 1620 3211 
Q 1862 3334 2173 3334 
Q 2458 3334 2686 3222 
Q 2915 3110 3076 2900 
Q 3238 2691 3324 2393 
Q 3411 2096 3411 1725 
Q 3411 1325 3312 998 
Q 3213 672 3029 440 
Q 2845 208 2585 80 
Q 2326 -48 2010 -48 
Q 1856 -48 1731 -17 
Q 1606 13 1500 67 
Q 1395 122 1307 200 
Q 1219 278 1139 374 
L 1104 154 
Q 1085 70 1038 35 
Q 992 0 912 0 
L 390 0 
L 390 4755 
L 1181 4755 
L 1181 2880 
z
" transform="scale(0.015625)"/>
      <path id="Lato-Bold-3a" d="M 339 435 
Q 339 534 376 624 
Q 413 714 477 778 
Q 541 842 630 880 
Q 720 918 822 918 
Q 925 918 1013 880 
Q 1101 842 1166 778 
Q 1232 714 1270 624 
Q 1309 534 1309 435 
Q 1309 333 1270 245 
Q 1232 157 1166 93 
Q 1101 29 1013 -8 
Q 925 -45 822 -45 
Q 720 -45 630 -8 
Q 541 29 477 93 
Q 413 157 376 245 
Q 339 333 339 435 
z
M 339 2739 
Q 339 2838 376 2928 
Q 413 3018 477 3082 
Q 541 3146 630 3184 
Q 720 3222 822 3222 
Q 925 3222 1013 3184 
Q 1101 3146 1166 3082 
Q 1232 3018 1270 2928 
Q 1309 2838 1309 2739 
Q 1309 2637 1270 2549 
Q 1232 2461 1166 2397 
Q 1101 2333 1013 2296 
Q 925 2259 822 2259 
Q 720 2259 630 2296 
Q 541 2333 477 2397 
Q 413 2461 376 2549 
Q 339 2637 339 2739 
z
" transform="scale(0.015625)"/>
     </defs>
     <use xlink:href="#Lato-Bold-54"/>
     <use xlink:href="#Lato-Bold-77" transform="translate(60.000015 0)"/>
     <use xlink:href="#Lato-Bold-6f" transform="translate(140.250031 0)"/>
     <use xlink:href="#Lato-Bold-20" transform="translate(197.700043 0)"/>
     <use xlink:href="#Lato-Bold-65" transform="translate(222.000046 0)"/>
     <use xlink:href="#Lato-Bold-71" transform="translate(275.400055 0)"/>
     <use xlink:href="#Lato-Bold-75" transform="translate(332.150055 0)"/>
     <use xlink:href="#Lato-Bold-69" transform="translate(388.550064 0)"/>
     <use xlink:href="#Lato-Bold-6c" transform="translate(413.950058 0)"/>
     <use xlink:href="#Lato-Bold-69" transform="translate(438.800064 0)"/>
     <use xlink:href="#Lato-Bold-62" transform="translate(464.200058 0)"/>
     <use xlink:href="#Lato-Bold-72" transform="translate(520.950058 0)"/>
     <use xlink:href="#Lato-Bold-69" transform="translate(558.250061 0)"/>
     <use xlink:href="#Lato-Bold-61" transform="translate(583.650055 0)"/>
     <use xlink:href="#Lato-Bold-3a" transform="translate(634.400055 0)"/>
    </g>
    <!-- high or low -->
    <g style="fill: #1a1a1a" transform="translate(307.824844 103.836326) scale(0.21 -0.21)">
     <defs>
      <path id="Lato-Bold-67" d="M 1590 1722 
Q 1738 1722 1846 1762 
Q 1955 1802 2027 1872 
Q 2099 1942 2136 2041 
Q 2173 2141 2173 2259 
Q 2173 2502 2027 2644 
Q 1882 2787 1590 2787 
Q 1299 2787 1153 2644 
Q 1008 2502 1008 2259 
Q 1008 2144 1045 2045 
Q 1082 1946 1154 1874 
Q 1226 1802 1336 1762 
Q 1446 1722 1590 1722 
z
M 2483 -147 
Q 2483 -51 2425 9 
Q 2368 70 2269 104 
Q 2170 138 2037 154 
Q 1904 170 1755 178 
Q 1606 186 1448 192 
Q 1290 198 1139 218 
Q 1008 144 926 45 
Q 845 -54 845 -186 
Q 845 -272 888 -347 
Q 931 -422 1025 -476 
Q 1120 -531 1270 -561 
Q 1421 -592 1638 -592 
Q 1859 -592 2019 -558 
Q 2179 -525 2283 -465 
Q 2387 -406 2435 -324 
Q 2483 -243 2483 -147 
z
M 3270 3171 
L 3270 2877 
Q 3270 2736 3101 2704 
L 2806 2650 
Q 2874 2480 2874 2278 
Q 2874 2035 2776 1838 
Q 2678 1642 2505 1504 
Q 2333 1366 2097 1291 
Q 1862 1216 1590 1216 
Q 1494 1216 1404 1225 
Q 1315 1235 1229 1251 
Q 1075 1158 1075 1043 
Q 1075 944 1166 897 
Q 1258 851 1408 832 
Q 1558 813 1750 808 
Q 1942 803 2144 787 
Q 2346 771 2538 731 
Q 2730 691 2880 604 
Q 3030 518 3121 369 
Q 3213 221 3213 -13 
Q 3213 -230 3105 -435 
Q 2998 -640 2795 -800 
Q 2592 -960 2296 -1057 
Q 2000 -1155 1622 -1155 
Q 1251 -1155 976 -1083 
Q 701 -1011 518 -891 
Q 336 -771 246 -614 
Q 157 -458 157 -288 
Q 157 -58 296 97 
Q 435 253 678 346 
Q 547 413 470 525 
Q 394 637 394 819 
Q 394 893 421 971 
Q 448 1050 501 1126 
Q 554 1203 634 1272 
Q 714 1341 822 1395 
Q 573 1530 430 1754 
Q 288 1978 288 2278 
Q 288 2522 385 2718 
Q 483 2915 657 3054 
Q 832 3194 1070 3267 
Q 1309 3341 1590 3341 
Q 1802 3341 1987 3297 
Q 2173 3254 2326 3171 
L 3270 3171 
z
" transform="scale(0.015625)"/>
     </defs>
     <use xlink:href="#Lato-Bold-68"/>
     <use xlink:href="#Lato-Bold-69" transform="translate(56.400009 0)"/>
     <use xlink:href="#Lato-Bold-67" transform="translate(81.800003 0)"/>
     <use xlink:href="#Lato-Bold-68" transform="translate(134.600006 0)"/>
     <use xlink:href="#Lato-Bold-20" transform="translate(191.000015 0)"/>
     <use xlink:href="#Lato-Bold-6f" transform="translate(215.300018 0)"/>
     <use xlink:href="#Lato-Bold-72" transform="translate(272.750031 0)"/>
     <use xlink:href="#Lato-Bold-20" transform="translate(310.050034 0)"/>
     <use xlink:href="#Lato-Bold-6c" transform="translate(334.350037 0)"/>
     <use xlink:href="#Lato-Bold-6f" transform="translate(359.200043 0)"/>
     <use xlink:href="#Lato-Bold-77" transform="translate(416.650055 0)"/>
    </g>
   </g>
   <g id="text_6">
    <!-- first case: 11 -->
    <g style="fill: #595a5b" transform="translate(312.372109 148.775428) scale(0.17 -0.17)">
     <defs>
      <path id="Lato-Regular-69" d="M 1053 3242 
L 1053 0 
L 483 0 
L 483 3242 
L 1053 3242 
z
M 1174 4259 
Q 1174 4176 1140 4104 
Q 1107 4032 1051 3976 
Q 995 3920 920 3888 
Q 845 3856 762 3856 
Q 678 3856 606 3888 
Q 534 3920 480 3976 
Q 426 4032 394 4104 
Q 362 4176 362 4259 
Q 362 4342 394 4417 
Q 426 4493 480 4549 
Q 534 4605 606 4637 
Q 678 4669 762 4669 
Q 845 4669 920 4637 
Q 995 4605 1051 4549 
Q 1107 4493 1140 4417 
Q 1174 4342 1174 4259 
z
" transform="scale(0.015625)"/>
      <path id="Lato-Regular-74" d="M 1446 -51 
Q 1062 -51 856 163 
Q 650 378 650 781 
L 650 2765 
L 259 2765 
Q 208 2765 173 2795 
Q 138 2826 138 2890 
L 138 3117 
L 669 3184 
L 800 4186 
Q 810 4234 843 4264 
Q 877 4294 931 4294 
L 1219 4294 
L 1219 3178 
L 2157 3178 
L 2157 2765 
L 1219 2765 
L 1219 819 
Q 1219 614 1318 515 
Q 1418 416 1574 416 
Q 1664 416 1729 440 
Q 1795 464 1843 493 
Q 1891 522 1924 546 
Q 1958 570 1984 570 
Q 2029 570 2064 515 
L 2230 243 
Q 2083 106 1875 27 
Q 1667 -51 1446 -51 
z
" transform="scale(0.015625)"/>
      <path id="Lato-Regular-31" d="M 3258 435 
L 3258 0 
L 800 0 
L 800 435 
L 1782 435 
L 1782 3562 
Q 1782 3702 1792 3846 
L 976 3146 
Q 934 3110 892 3102 
Q 851 3094 816 3100 
Q 781 3107 750 3126 
Q 720 3146 704 3168 
L 525 3414 
L 1891 4595 
L 2355 4595 
L 2355 435 
L 3258 435 
z
" transform="scale(0.015625)"/>
     </defs>
     <use xlink:href="#Lato-Regular-66"/>
     <use xlink:href="#Lato-Regular-69" transform="translate(35.050003 0)"/>
     <use xlink:href="#Lato-Regular-72" transform="translate(59.050003 0)"/>
     <use xlink:href="#Lato-Regular-73" transform="translate(95.450012 0)"/>
     <use xlink:href="#Lato-Regular-74" transform="translate(138.750015 0)"/>
     <use xlink:href="#Lato-Regular-20" transform="translate(174.600021 0)"/>
     <use xlink:href="#Lato-Regular-63" transform="translate(200.200027 0)"/>
     <use xlink:href="#Lato-Regular-61" transform="translate(247.950027 0)"/>
     <use xlink:href="#Lato-Regular-73" transform="translate(297.65004 0)"/>
     <use xlink:href="#Lato-Regular-65" transform="translate(340.950043 0)"/>
     <use xlink:href="#Lato-Regular-3a" transform="translate(393.750046 0)"/>
     <use xlink:href="#Lato-Regular-20" transform="translate(418.750046 0)"/>
     <use xlink:href="#Lato-Regular-31" transform="translate(444.350052 0)"/>
     <use xlink:href="#Lato-Regular-31" transform="translate(502.350052 0)"/>
    </g>
   </g>
   <g id="text_7">
    <!-- 12 or more loyal -->
    <g style="fill: #8f4100" transform="translate(526.102312 33.35615) scale(0.21 -0.21)">
     <defs>
      <path id="Lato-Bold-32" d="M 3139 736 
Q 3267 736 3342 664 
Q 3418 592 3418 474 
L 3418 0 
L 243 0 
L 243 262 
Q 243 342 276 430 
Q 310 518 384 589 
L 1789 1997 
Q 1965 2176 2104 2339 
Q 2243 2502 2336 2662 
Q 2429 2822 2478 2987 
Q 2528 3152 2528 3334 
Q 2528 3501 2480 3627 
Q 2432 3754 2344 3840 
Q 2256 3926 2133 3969 
Q 2010 4013 1856 4013 
Q 1715 4013 1595 3973 
Q 1475 3933 1382 3861 
Q 1290 3789 1226 3693 
Q 1162 3597 1130 3482 
Q 1075 3334 988 3286 
Q 902 3238 739 3264 
L 323 3338 
Q 371 3670 508 3921 
Q 646 4173 852 4341 
Q 1059 4509 1326 4593 
Q 1594 4678 1901 4678 
Q 2221 4678 2486 4584 
Q 2752 4490 2941 4317 
Q 3130 4144 3235 3901 
Q 3341 3658 3341 3360 
Q 3341 3104 3265 2886 
Q 3190 2669 3064 2470 
Q 2938 2272 2768 2086 
Q 2598 1901 2413 1709 
L 1370 643 
Q 1520 688 1669 712 
Q 1818 736 1952 736 
L 3139 736 
z
" transform="scale(0.015625)"/>
     </defs>
     <use xlink:href="#Lato-Bold-31"/>
     <use xlink:href="#Lato-Bold-32" transform="translate(58 0)"/>
     <use xlink:href="#Lato-Bold-20" transform="translate(116 0)"/>
     <use xlink:href="#Lato-Bold-6f" transform="translate(140.300003 0)"/>
     <use xlink:href="#Lato-Bold-72" transform="translate(197.750015 0)"/>
     <use xlink:href="#Lato-Bold-20" transform="translate(235.050018 0)"/>
     <use xlink:href="#Lato-Bold-6d" transform="translate(259.350021 0)"/>
     <use xlink:href="#Lato-Bold-6f" transform="translate(343.100037 0)"/>
     <use xlink:href="#Lato-Bold-72" transform="translate(400.550049 0)"/>
     <use xlink:href="#Lato-Bold-65" transform="translate(437.850052 0)"/>
     <use xlink:href="#Lato-Bold-20" transform="translate(491.250061 0)"/>
     <use xlink:href="#Lato-Bold-6c" transform="translate(515.550064 0)"/>
     <use xlink:href="#Lato-Bold-6f" transform="translate(540.40007 0)"/>
     <use xlink:href="#Lato-Bold-79" transform="translate(597.850082 0)"/>
     <use xlink:href="#Lato-Bold-61" transform="translate(650.600082 0)"/>
     <use xlink:href="#Lato-Bold-6c" transform="translate(701.350082 0)"/>
    </g>
   </g>
   <g id="text_8">
    <!-- Both price high -->
    <g style="fill: #1a1a1a" transform="translate(531.201375 81.186514) scale(0.21 -0.21)">
     <use xlink:href="#Lato-Bold-42"/>
     <use xlink:href="#Lato-Bold-6f" transform="translate(65.850006 0)"/>
     <use xlink:href="#Lato-Bold-74" transform="translate(123.300018 0)"/>
     <use xlink:href="#Lato-Bold-68" transform="translate(160.500015 0)"/>
     <use xlink:href="#Lato-Bold-20" transform="translate(216.900024 0)"/>
     <use xlink:href="#Lato-Bold-70" transform="translate(241.200027 0)"/>
     <use xlink:href="#Lato-Bold-72" transform="translate(298.000031 0)"/>
     <use xlink:href="#Lato-Bold-69" transform="translate(335.300034 0)"/>
     <use xlink:href="#Lato-Bold-63" transform="translate(360.700027 0)"/>
     <use xlink:href="#Lato-Bold-65" transform="translate(408.90004 0)"/>
     <use xlink:href="#Lato-Bold-20" transform="translate(462.300049 0)"/>
     <use xlink:href="#Lato-Bold-68" transform="translate(486.600052 0)"/>
     <use xlink:href="#Lato-Bold-69" transform="translate(543.000061 0)"/>
     <use xlink:href="#Lato-Bold-67" transform="translate(568.400055 0)"/>
     <use xlink:href="#Lato-Bold-68" transform="translate(621.200058 0)"/>
    </g>
    <!-- (H is dominant) -->
    <g style="fill: #1a1a1a" transform="translate(531.578719 104.51817) scale(0.21 -0.21)">
     <defs>
      <path id="Lato-Bold-48" d="M 4416 4627 
L 4416 0 
L 3552 0 
L 3552 2022 
L 1379 2022 
L 1379 0 
L 515 0 
L 515 4627 
L 1379 4627 
L 1379 2637 
L 3552 2637 
L 3552 4627 
L 4416 4627 
z
" transform="scale(0.015625)"/>
     </defs>
     <use xlink:href="#Lato-Bold-28"/>
     <use xlink:href="#Lato-Bold-48" transform="translate(27.449997 0)"/>
     <use xlink:href="#Lato-Bold-20" transform="translate(104.500015 0)"/>
     <use xlink:href="#Lato-Bold-69" transform="translate(128.800018 0)"/>
     <use xlink:href="#Lato-Bold-73" transform="translate(154.200012 0)"/>
     <use xlink:href="#Lato-Bold-20" transform="translate(198.150009 0)"/>
     <use xlink:href="#Lato-Bold-64" transform="translate(222.450012 0)"/>
     <use xlink:href="#Lato-Bold-6f" transform="translate(279.200012 0)"/>
     <use xlink:href="#Lato-Bold-6d" transform="translate(336.650024 0)"/>
     <use xlink:href="#Lato-Bold-69" transform="translate(420.40004 0)"/>
     <use xlink:href="#Lato-Bold-6e" transform="translate(445.800034 0)"/>
     <use xlink:href="#Lato-Bold-61" transform="translate(502.200043 0)"/>
     <use xlink:href="#Lato-Bold-6e" transform="translate(552.950043 0)"/>
     <use xlink:href="#Lato-Bold-74" transform="translate(609.350052 0)"/>
     <use xlink:href="#Lato-Bold-29" transform="translate(646.550049 0)"/>
    </g>
   </g>
   <g id="text_9">
    <!-- more loyal case: 13 -->
    <g style="fill: #595a5b" transform="translate(530.558875 148.775428) scale(0.17 -0.17)">
     <defs>
      <path id="Lato-Regular-6d" d="M 451 0 
L 451 3242 
L 794 3242 
Q 915 3242 944 3123 
L 986 2790 
Q 1165 3011 1389 3152 
Q 1613 3293 1907 3293 
Q 2234 3293 2437 3110 
Q 2640 2928 2730 2618 
Q 2800 2794 2910 2922 
Q 3021 3050 3158 3133 
Q 3296 3216 3451 3254 
Q 3606 3293 3766 3293 
Q 4022 3293 4222 3211 
Q 4422 3130 4561 2973 
Q 4701 2816 4774 2587 
Q 4848 2358 4848 2064 
L 4848 0 
L 4275 0 
L 4275 2064 
Q 4275 2445 4108 2641 
Q 3942 2838 3629 2838 
Q 3488 2838 3361 2788 
Q 3235 2739 3139 2643 
Q 3043 2547 2987 2401 
Q 2931 2256 2931 2064 
L 2931 0 
L 2358 0 
L 2358 2064 
Q 2358 2454 2201 2646 
Q 2045 2838 1744 2838 
Q 1533 2838 1353 2724 
Q 1174 2611 1024 2416 
L 1024 0 
L 451 0 
z
" transform="scale(0.015625)"/>
      <path id="Lato-Regular-33" d="M 416 3344 
Q 461 3658 589 3899 
Q 717 4141 913 4304 
Q 1110 4467 1364 4552 
Q 1619 4637 1914 4637 
Q 2205 4637 2451 4553 
Q 2698 4470 2875 4316 
Q 3053 4163 3152 3945 
Q 3251 3728 3251 3462 
Q 3251 3245 3195 3073 
Q 3139 2902 3035 2774 
Q 2931 2646 2784 2556 
Q 2637 2467 2454 2410 
Q 2902 2294 3128 2014 
Q 3354 1734 3354 1315 
Q 3354 998 3234 745 
Q 3114 493 2906 315 
Q 2698 138 2421 43 
Q 2144 -51 1827 -51 
Q 1462 -51 1203 40 
Q 944 131 765 291 
Q 586 451 470 670 
Q 355 890 275 1146 
L 522 1248 
Q 618 1290 709 1270 
Q 800 1251 842 1165 
Q 883 1075 945 950 
Q 1008 826 1117 710 
Q 1226 595 1394 515 
Q 1562 435 1821 435 
Q 2061 435 2241 513 
Q 2422 592 2542 717 
Q 2662 842 2723 995 
Q 2784 1149 2784 1299 
Q 2784 1485 2736 1638 
Q 2688 1792 2557 1904 
Q 2426 2016 2197 2080 
Q 1968 2144 1610 2144 
L 1610 2557 
Q 1904 2560 2110 2621 
Q 2317 2682 2446 2787 
Q 2576 2893 2635 3040 
Q 2694 3187 2694 3366 
Q 2694 3565 2632 3712 
Q 2570 3859 2461 3955 
Q 2352 4051 2203 4099 
Q 2054 4147 1882 4147 
Q 1709 4147 1560 4096 
Q 1411 4045 1297 3953 
Q 1184 3862 1107 3737 
Q 1030 3613 998 3462 
Q 957 3350 894 3313 
Q 832 3277 714 3293 
L 416 3344 
z
" transform="scale(0.015625)"/>
     </defs>
     <use xlink:href="#Lato-Regular-6d"/>
     <use xlink:href="#Lato-Regular-6f" transform="translate(82.250015 0)"/>
     <use xlink:href="#Lato-Regular-72" transform="translate(138.950027 0)"/>
     <use xlink:href="#Lato-Regular-65" transform="translate(175.350037 0)"/>
     <use xlink:href="#Lato-Regular-20" transform="translate(228.15004 0)"/>
     <use xlink:href="#Lato-Regular-6c" transform="translate(253.750046 0)"/>
     <use xlink:href="#Lato-Regular-6f" transform="translate(277.350052 0)"/>
     <use xlink:href="#Lato-Regular-79" transform="translate(334.050064 0)"/>
     <use xlink:href="#Lato-Regular-61" transform="translate(385.600067 0)"/>
     <use xlink:href="#Lato-Regular-6c" transform="translate(435.300079 0)"/>
     <use xlink:href="#Lato-Regular-20" transform="translate(458.900085 0)"/>
     <use xlink:href="#Lato-Regular-63" transform="translate(484.500092 0)"/>
     <use xlink:href="#Lato-Regular-61" transform="translate(532.250092 0)"/>
     <use xlink:href="#Lato-Regular-73" transform="translate(581.950104 0)"/>
     <use xlink:href="#Lato-Regular-65" transform="translate(625.250107 0)"/>
     <use xlink:href="#Lato-Regular-3a" transform="translate(678.05011 0)"/>
     <use xlink:href="#Lato-Regular-20" transform="translate(703.05011 0)"/>
     <use xlink:href="#Lato-Regular-31" transform="translate(728.650116 0)"/>
     <use xlink:href="#Lato-Regular-33" transform="translate(786.650116 0)"/>
    </g>
   </g>
   <g id="patch_5">
    <path d="M 10.350732 184.803648 
Q 360.000165 184.803648 706.966317 184.803648 
" style="fill: none; stroke: #1a1a1a; stroke-width: 2.4; stroke-linecap: round"/>
    <path d="M 695.766317 179.203648 
L 706.966317 184.803648 
L 695.766317 190.403648 
z
" style="fill: #1a1a1a; stroke: #1a1a1a; stroke-width: 2.4; stroke-linecap: round"/>
   </g>
   <g id="text_10">
    <!-- More loyal customers: less elastic demand, higher prices -->
    <g style="fill: #1a1a1a" transform="translate(126.826953 213.399082) scale(0.19 -0.19)">
     <defs>
      <path id="Lato-Regular-4d" d="M 5357 4586 
L 5357 0 
L 4813 0 
L 4813 3370 
Q 4813 3437 4817 3513 
Q 4822 3590 4829 3670 
L 3254 803 
Q 3181 659 3030 659 
L 2941 659 
Q 2790 659 2717 803 
L 1110 3683 
Q 1130 3514 1130 3370 
L 1130 0 
L 586 0 
L 586 4586 
L 1043 4586 
Q 1126 4586 1171 4570 
Q 1216 4554 1258 4480 
L 2842 1658 
Q 2880 1581 2917 1497 
Q 2954 1414 2986 1328 
Q 3018 1414 3053 1499 
Q 3088 1584 3130 1661 
L 4685 4480 
Q 4723 4554 4769 4570 
Q 4816 4586 4899 4586 
L 5357 4586 
z
" transform="scale(0.015625)"/>
      <path id="Lato-Regular-75" d="M 3117 3242 
L 3117 0 
L 2778 0 
Q 2656 0 2624 118 
L 2579 467 
Q 2368 234 2105 91 
Q 1843 -51 1504 -51 
Q 1238 -51 1035 37 
Q 832 125 694 285 
Q 557 445 488 672 
Q 419 899 419 1174 
L 419 3242 
L 989 3242 
L 989 1174 
Q 989 806 1157 604 
Q 1325 403 1670 403 
Q 1923 403 2142 523 
Q 2362 643 2547 854 
L 2547 3242 
L 3117 3242 
z
" transform="scale(0.015625)"/>
      <path id="Lato-Regular-64" d="M 2563 2470 
Q 2403 2685 2217 2769 
Q 2032 2854 1802 2854 
Q 1350 2854 1107 2531 
Q 864 2208 864 1610 
Q 864 1293 918 1067 
Q 973 842 1078 696 
Q 1184 550 1337 483 
Q 1491 416 1686 416 
Q 1968 416 2177 544 
Q 2387 672 2563 906 
L 2563 2470 
z
M 3133 4714 
L 3133 0 
L 2794 0 
Q 2672 0 2640 118 
L 2589 512 
Q 2381 262 2115 108 
Q 1850 -45 1501 -45 
Q 1222 -45 995 62 
Q 768 170 608 378 
Q 448 586 361 896 
Q 275 1206 275 1610 
Q 275 1968 371 2277 
Q 467 2586 646 2813 
Q 826 3040 1086 3169 
Q 1347 3299 1674 3299 
Q 1971 3299 2184 3198 
Q 2397 3098 2563 2918 
L 2563 4714 
L 3133 4714 
z
" transform="scale(0.015625)"/>
      <path id="Lato-Regular-6e" d="M 989 2771 
Q 1094 2890 1212 2986 
Q 1331 3082 1464 3150 
Q 1597 3219 1745 3256 
Q 1894 3293 2067 3293 
Q 2333 3293 2536 3205 
Q 2739 3117 2875 2955 
Q 3011 2794 3081 2566 
Q 3152 2339 3152 2064 
L 3152 0 
L 2579 0 
L 2579 2064 
Q 2579 2432 2411 2635 
Q 2243 2838 1901 2838 
Q 1648 2838 1429 2716 
Q 1210 2595 1024 2387 
L 1024 0 
L 451 0 
L 451 3242 
L 794 3242 
Q 915 3242 944 3123 
L 989 2771 
z
" transform="scale(0.015625)"/>
      <path id="Lato-Regular-2c" d="M 416 -774 
Q 390 -752 380 -733 
Q 371 -714 371 -685 
Q 371 -662 385 -640 
Q 400 -618 419 -598 
Q 451 -563 500 -505 
Q 550 -448 601 -369 
Q 653 -291 696 -196 
Q 739 -102 758 3 
Q 749 0 737 0 
Q 726 0 717 0 
Q 550 0 446 110 
Q 342 221 342 394 
Q 342 544 446 649 
Q 550 755 723 755 
Q 819 755 892 720 
Q 966 685 1016 622 
Q 1066 560 1091 478 
Q 1117 397 1117 301 
Q 1117 157 1077 1 
Q 1037 -154 958 -306 
Q 880 -458 768 -602 
Q 656 -746 512 -867 
L 416 -774 
z
" transform="scale(0.015625)"/>
      <path id="Lato-Regular-68" d="M 1024 2810 
Q 1232 3030 1485 3161 
Q 1738 3293 2067 3293 
Q 2333 3293 2536 3205 
Q 2739 3117 2875 2955 
Q 3011 2794 3081 2566 
Q 3152 2339 3152 2064 
L 3152 0 
L 2579 0 
L 2579 2064 
Q 2579 2432 2411 2635 
Q 2243 2838 1901 2838 
Q 1648 2838 1429 2716 
Q 1210 2595 1024 2387 
L 1024 0 
L 451 0 
L 451 4714 
L 1024 4714 
L 1024 2810 
z
" transform="scale(0.015625)"/>
      <path id="Lato-Regular-67" d="M 1581 1584 
Q 1754 1584 1885 1632 
Q 2016 1680 2105 1766 
Q 2195 1853 2240 1973 
Q 2285 2093 2285 2237 
Q 2285 2534 2104 2710 
Q 1923 2886 1581 2886 
Q 1235 2886 1054 2710 
Q 874 2534 874 2237 
Q 874 2093 920 1973 
Q 966 1853 1056 1766 
Q 1146 1680 1277 1632 
Q 1408 1584 1581 1584 
z
M 2608 -176 
Q 2608 -58 2541 16 
Q 2474 90 2360 131 
Q 2246 173 2096 190 
Q 1946 208 1778 217 
Q 1610 227 1437 236 
Q 1264 246 1104 269 
Q 925 186 811 59 
Q 698 -67 698 -237 
Q 698 -346 754 -440 
Q 810 -534 925 -603 
Q 1040 -672 1214 -712 
Q 1389 -752 1626 -752 
Q 1856 -752 2038 -710 
Q 2221 -669 2347 -592 
Q 2474 -515 2541 -409 
Q 2608 -304 2608 -176 
z
M 3187 3114 
L 3187 2902 
Q 3187 2797 3053 2768 
L 2685 2720 
Q 2794 2509 2794 2253 
Q 2794 2016 2702 1822 
Q 2611 1629 2451 1491 
Q 2291 1354 2067 1280 
Q 1843 1206 1581 1206 
Q 1354 1206 1152 1261 
Q 1050 1197 995 1125 
Q 941 1053 941 979 
Q 941 864 1035 805 
Q 1130 746 1283 720 
Q 1437 694 1633 688 
Q 1830 682 2036 667 
Q 2243 653 2440 617 
Q 2637 582 2790 502 
Q 2944 422 3038 281 
Q 3133 141 3133 -83 
Q 3133 -291 3029 -486 
Q 2925 -682 2729 -834 
Q 2534 -986 2251 -1077 
Q 1968 -1168 1613 -1168 
Q 1258 -1168 992 -1097 
Q 726 -1027 550 -908 
Q 374 -790 286 -635 
Q 198 -480 198 -310 
Q 198 -70 348 96 
Q 499 262 762 362 
Q 618 426 533 533 
Q 448 640 448 822 
Q 448 893 473 968 
Q 499 1043 552 1118 
Q 605 1194 681 1261 
Q 758 1328 861 1379 
Q 621 1514 486 1736 
Q 352 1958 352 2253 
Q 352 2490 443 2683 
Q 534 2877 697 3013 
Q 861 3149 1086 3222 
Q 1312 3296 1581 3296 
Q 1792 3296 1974 3249 
Q 2157 3203 2307 3114 
L 3187 3114 
z
" transform="scale(0.015625)"/>
      <path id="Lato-Regular-70" d="M 1024 781 
Q 1181 570 1366 483 
Q 1552 397 1782 397 
Q 2237 397 2480 720 
Q 2723 1043 2723 1642 
Q 2723 1958 2667 2185 
Q 2611 2413 2505 2558 
Q 2400 2704 2246 2771 
Q 2093 2838 1898 2838 
Q 1619 2838 1409 2710 
Q 1200 2582 1024 2349 
L 1024 781 
z
M 995 2739 
Q 1200 2992 1469 3145 
Q 1738 3299 2083 3299 
Q 2365 3299 2592 3192 
Q 2819 3085 2979 2875 
Q 3139 2666 3225 2355 
Q 3312 2045 3312 1642 
Q 3312 1283 3216 974 
Q 3120 666 2939 440 
Q 2758 214 2497 84 
Q 2237 -45 1910 -45 
Q 1613 -45 1400 56 
Q 1187 157 1024 336 
L 1024 -1098 
L 451 -1098 
L 451 3242 
L 794 3242 
Q 915 3242 944 3123 
L 995 2739 
z
" transform="scale(0.015625)"/>
     </defs>
     <use xlink:href="#Lato-Regular-4d"/>
     <use xlink:href="#Lato-Regular-6f" transform="translate(92.850021 0)"/>
     <use xlink:href="#Lato-Regular-72" transform="translate(149.550034 0)"/>
     <use xlink:href="#Lato-Regular-65" transform="translate(185.950043 0)"/>
     <use xlink:href="#Lato-Regular-20" transform="translate(238.750046 0)"/>
     <use xlink:href="#Lato-Regular-6c" transform="translate(264.350052 0)"/>
     <use xlink:href="#Lato-Regular-6f" transform="translate(287.950058 0)"/>
     <use xlink:href="#Lato-Regular-79" transform="translate(344.65007 0)"/>
     <use xlink:href="#Lato-Regular-61" transform="translate(396.200073 0)"/>
     <use xlink:href="#Lato-Regular-6c" transform="translate(445.900085 0)"/>
     <use xlink:href="#Lato-Regular-20" transform="translate(469.500092 0)"/>
     <use xlink:href="#Lato-Regular-63" transform="translate(495.100098 0)"/>
     <use xlink:href="#Lato-Regular-75" transform="translate(542.850098 0)"/>
     <use xlink:href="#Lato-Regular-73" transform="translate(598.600098 0)"/>
     <use xlink:href="#Lato-Regular-74" transform="translate(641.900101 0)"/>
     <use xlink:href="#Lato-Regular-6f" transform="translate(677.750107 0)"/>
     <use xlink:href="#Lato-Regular-6d" transform="translate(734.450119 0)"/>
     <use xlink:href="#Lato-Regular-65" transform="translate(816.700134 0)"/>
     <use xlink:href="#Lato-Regular-72" transform="translate(869.500137 0)"/>
     <use xlink:href="#Lato-Regular-73" transform="translate(905.900146 0)"/>
     <use xlink:href="#Lato-Regular-3a" transform="translate(949.20015 0)"/>
     <use xlink:href="#Lato-Regular-20" transform="translate(974.20015 0)"/>
     <use xlink:href="#Lato-Regular-6c" transform="translate(999.800156 0)"/>
     <use xlink:href="#Lato-Regular-65" transform="translate(1023.400162 0)"/>
     <use xlink:href="#Lato-Regular-73" transform="translate(1076.200165 0)"/>
     <use xlink:href="#Lato-Regular-73" transform="translate(1119.500168 0)"/>
     <use xlink:href="#Lato-Regular-20" transform="translate(1162.800171 0)"/>
     <use xlink:href="#Lato-Regular-65" transform="translate(1188.400177 0)"/>
     <use xlink:href="#Lato-Regular-6c" transform="translate(1241.20018 0)"/>
     <use xlink:href="#Lato-Regular-61" transform="translate(1264.800186 0)"/>
     <use xlink:href="#Lato-Regular-73" transform="translate(1314.500198 0)"/>
     <use xlink:href="#Lato-Regular-74" transform="translate(1357.800201 0)"/>
     <use xlink:href="#Lato-Regular-69" transform="translate(1393.650208 0)"/>
     <use xlink:href="#Lato-Regular-63" transform="translate(1417.650208 0)"/>
     <use xlink:href="#Lato-Regular-20" transform="translate(1465.400208 0)"/>
     <use xlink:href="#Lato-Regular-64" transform="translate(1491.000214 0)"/>
     <use xlink:href="#Lato-Regular-65" transform="translate(1547.000214 0)"/>
     <use xlink:href="#Lato-Regular-6d" transform="translate(1599.800217 0)"/>
     <use xlink:href="#Lato-Regular-61" transform="translate(1682.050232 0)"/>
     <use xlink:href="#Lato-Regular-6e" transform="translate(1731.750244 0)"/>
     <use xlink:href="#Lato-Regular-64" transform="translate(1787.550247 0)"/>
     <use xlink:href="#Lato-Regular-2c" transform="translate(1843.550247 0)"/>
     <use xlink:href="#Lato-Regular-20" transform="translate(1866.250244 0)"/>
     <use xlink:href="#Lato-Regular-68" transform="translate(1891.85025 0)"/>
     <use xlink:href="#Lato-Regular-69" transform="translate(1947.650253 0)"/>
     <use xlink:href="#Lato-Regular-67" transform="translate(1971.650253 0)"/>
     <use xlink:href="#Lato-Regular-68" transform="translate(2023.650253 0)"/>
     <use xlink:href="#Lato-Regular-65" transform="translate(2079.450256 0)"/>
     <use xlink:href="#Lato-Regular-72" transform="translate(2132.250259 0)"/>
     <use xlink:href="#Lato-Regular-20" transform="translate(2168.650269 0)"/>
     <use xlink:href="#Lato-Regular-70" transform="translate(2194.250275 0)"/>
     <use xlink:href="#Lato-Regular-72" transform="translate(2250.300278 0)"/>
     <use xlink:href="#Lato-Regular-69" transform="translate(2286.700287 0)"/>
     <use xlink:href="#Lato-Regular-63" transform="translate(2310.700287 0)"/>
     <use xlink:href="#Lato-Regular-65" transform="translate(2358.450287 0)"/>
     <use xlink:href="#Lato-Regular-73" transform="translate(2411.25029 0)"/>
    </g>
   </g>
  </g>
 </g>
 <defs>
  <clipPath id="pcd4a4f5258">
   <rect x="3.6" y="2.232" width="712.8" height="218.736"/>
  </clipPath>
 </defs>
</svg>
